<?xml version="1.0" standalone="no"?>
<!DOCTYPE svg PUBLIC "-//W3C//DTD SVG 20010904//EN"
 "http://www.w3.org/TR/2001/REC-SVG-20010904/DTD/svg10.dtd">
<svg version="1.0" xmlns="http://www.w3.org/2000/svg"
 width="1274.000000pt" height="1148.000000pt" viewBox="0 0 1274.000000 1148.000000"
 preserveAspectRatio="xMidYMid meet">
<metadata>
Created by potrace 1.15, written by Peter Selinger 2001-2017
</metadata>
<g transform="translate(0.000000,1148.000000) scale(0.100000,-0.100000)"
fill="#000000" stroke="none">
<path d="M6535 11135 c-178 -34 -329 -116 -448 -245 -155 -167 -235 -409 -208
-634 23 -192 92 -337 226 -472 105 -107 194 -163 327 -207 86 -28 104 -31 228
-30 108 0 149 4 204 20 l69 21 431 -356 c237 -196 450 -367 474 -379 72 -37
146 -48 230 -34 68 12 75 11 88 -6 28 -36 134 -260 164 -347 38 -111 77 -302
86 -423 l7 -93 -2894 0 c-3184 0 -2965 4 -3099 -62 -84 -41 -187 -142 -229
-226 -49 -96 -64 -171 -59 -283 l5 -96 557 -1394 c307 -767 571 -1415 588
-1441 40 -64 132 -147 200 -181 112 -56 116 -57 708 -57 l546 0 292 -1317
c161 -725 292 -1323 292 -1329 0 -7 -40 -16 -98 -22 -525 -60 -912 -460 -958
-989 l-7 -83 2143 0 2143 0 -7 83 c-33 379 -234 689 -567 871 -115 63 -264
106 -416 121 -44 4 -73 12 -73 19 0 6 131 604 292 1329 l292 1317 546 0 c589
0 595 1 707 55 65 33 160 118 201 183 17 26 281 674 588 1441 l557 1394 5 91
c6 115 -9 185 -59 285 -70 140 -205 242 -364 276 -58 12 -197 15 -812 15
l-743 0 0 23 c0 74 -24 269 -45 370 -42 203 -131 433 -232 599 l-41 66 25 49
c75 153 42 342 -81 461 -28 27 -228 194 -445 371 l-394 321 2 118 c2 97 -2
134 -23 216 -80 311 -324 535 -642 591 -103 18 -184 18 -279 0z m3582 -3742
c-9 -35 -1049 -2628 -1056 -2636 -4 -4 -203 -6 -442 -5 l-435 3 107 475 c59
261 110 502 114 535 13 124 -30 269 -115 382 -51 67 -152 138 -243 172 l-72
26 -1547 3 c-1707 3 -1622 6 -1756 -60 -183 -90 -306 -308 -288 -513 3 -38 57
-285 120 -548 l113 -477 -441 2 -440 3 -528 1320 c-290 726 -528 1323 -528
1327 0 5 1675 8 3721 8 3539 0 3721 -1 3716 -17z m-2703 -3640 c-249 -1132
-460 -2091 -469 -2130 l-16 -73 -529 0 -528 0 -5 23 c-4 12 -211 960 -462
2107 -251 1147 -458 2095 -462 2108 l-5 22 1464 0 1464 0 -452 -2057z"/>
</g>
</svg>
